<?xml version="1.0" encoding="UTF-8"?>
<!DOCTYPE svg PUBLIC "-//W3C//DTD SVG 1.1//EN" "http://www.w3.org/Graphics/SVG/1.1/DTD/svg11.dtd">
<!-- Creator: CorelDRAW 2021 (64-Bit) -->
<svg xmlns="http://www.w3.org/2000/svg" xml:space="preserve" width="534px" height="297px" version="1.1" style="shape-rendering:geometricPrecision; text-rendering:geometricPrecision; image-rendering:optimizeQuality; fill-rule:evenodd; clip-rule:evenodd"
viewBox="0 0 74.31 41.3"
 xmlns:xlink="http://www.w3.org/1999/xlink"
 xmlns:xodm="http://www.corel.com/coreldraw/odm/2003">
 <defs>
  <style type="text/css">
   <![CDATA[
    .fil0 {fill:#CDA274;fill-rule:nonzero}
   ]]>
  </style>
 </defs>
 <g id="Layer_x0020_1">
  <metadata id="CorelCorpID_0Corel-Layer"/>
  <g id="_1617945013632">
   <path class="fil0" d="M34.76 6.6l18.9 0c3.88,0 7.39,1.57 9.93,4.12 2.54,2.54 4.12,6.05 4.12,9.93 0,3.88 -1.58,7.39 -4.12,9.94 -2.54,2.54 -6.05,4.11 -9.93,4.11l-9 0c0.42,2.8 2.83,4.91 5.7,4.91l3.3 0c5.23,0 9.97,-2.12 13.4,-5.55 3.43,-3.44 5.55,-8.17 5.55,-13.41 0,-5.23 -2.12,-9.97 -5.55,-13.4 -3.43,-3.43 -8.17,-5.56 -13.4,-5.56l-13.21 0c-2.89,0 -5.28,2.14 -5.69,4.91zm-6.66 3.74c1.99,1.57 3.63,3.57 4.77,5.86 0.05,0.09 0.09,0.18 0.14,0.27l0 -8.18 0 -0.84c0,-2.28 1.01,-4.34 2.72,-5.76l-1.88 0c-1.59,0 -3.02,0.65 -4.07,1.69 -1.04,1.04 -1.68,2.48 -1.68,4.07l0 2.89zm3.27 6.62c-1.1,-2.19 -2.69,-4.08 -4.62,-5.54l-0.35 -0.25 0 -3.72c0,-2.06 0.84,-3.92 2.19,-5.27 1.34,-1.35 3.21,-2.18 5.26,-2.18l6.6 0 13.21 0c5.7,0 10.86,2.31 14.6,6.05 3.74,3.74 6.05,8.9 6.05,14.6 0,5.7 -2.31,10.87 -6.05,14.6 -3.74,3.74 -8.9,6.05 -14.6,6.05l-3.3 0 -6.6 0c-2.06,0 -3.92,-0.83 -5.27,-2.18 -1.35,-1.35 -2.18,-3.21 -2.18,-5.27l0 0 0 -16.5 0 0c0,-1.15 0.46,-2.18 1.21,-2.93 0.75,-0.75 1.79,-1.22 2.93,-1.22 1.15,0 2.19,0.47 2.94,1.22 0.75,0.75 1.21,1.78 1.21,2.93l0 15.66 9.06 0c3.41,0 6.5,-1.39 8.73,-3.62 2.24,-2.24 3.62,-5.33 3.62,-8.74 0,-3.41 -1.38,-6.5 -3.62,-8.74 -2.23,-2.23 -5.32,-3.62 -8.73,-3.62l-18.96 0 0 15.66 -1.69 0c0,-2.52 -0.59,-4.89 -1.64,-6.99zm11.54 0.39c0,-0.68 -0.28,-1.29 -0.72,-1.74 -0.44,-0.44 -1.06,-0.71 -1.74,-0.71 -0.67,0 -1.29,0.27 -1.73,0.71 -0.44,0.45 -0.72,1.06 -0.72,1.74l0 0 0 16.5 0 0c0,1.59 0.64,3.03 1.69,4.07 1.04,1.04 2.48,1.69 4.07,1.69l1.87 0c-1.7,-1.41 -2.72,-3.48 -2.72,-5.76l0 0 0 -16.5z"/>
   <path class="fil0" d="M34.7 23.95c0,-2.78 -0.66,-5.41 -1.83,-7.75 -1.21,-2.42 -2.97,-4.52 -5.11,-6.13 -1.48,-1.1 -3.14,-1.98 -4.92,-2.58 -1.74,-0.58 -3.58,-0.89 -5.49,-0.89 -4.79,0 -9.13,1.94 -12.27,5.08 -3.26,3.27 -5.08,7.65 -5.08,12.27l1.69 0c0.05,-3.35 0.97,-6.78 3.17,-8.98 1.61,-2.09 2.28,-3.25 3.62,-3.92 2.52,-1.74 5.58,-2.76 8.87,-2.76 1.74,0 3.41,0.28 4.96,0.8 1.61,0.54 3.1,1.33 4.44,2.33 1.93,1.46 3.52,3.35 4.62,5.54 1.05,2.1 1.64,4.47 1.64,6.99l1.69 0z"/>
   <path class="fil0" d="M27.68 26.94c-0.51,1.77 -1.46,3.35 -2.73,4.61 -1.94,1.95 -4.63,3.15 -7.6,3.15 -2.97,0 -5.66,-1.2 -7.6,-3.15 -1.95,-1.94 -3.15,-4.63 -3.15,-7.6 0,-2.97 1.2,-5.65 3.15,-7.6 1.94,-1.94 4.63,-3.15 7.6,-3.15 1.4,0 2.74,0.27 3.97,0.76 -2.04,-1.49 -4.55,-2.36 -7.27,-2.36 -3.41,0 -6.5,1.38 -8.74,3.61 -2.23,2.24 -3.62,5.33 -3.62,8.74 0,4.32 1.76,8.24 4.59,11.07 2.83,2.84 6.75,4.59 11.07,4.59 4.32,0 8.24,-1.75 11.07,-4.59 2.02,-2.02 3.49,-4.58 4.17,-7.45 -0.6,0.34 -1.3,0.53 -2.04,0.53 -1.11,0 -2.13,-0.44 -2.87,-1.16zm-3.93 3.41c1.64,-1.63 2.65,-3.9 2.65,-6.4 0,-2.5 -1.01,-4.76 -2.65,-6.4 -1.64,-1.64 -3.9,-2.65 -6.4,-2.65 -2.5,0 -4.76,1.01 -6.4,2.65 -1.64,1.64 -2.66,3.9 -2.66,6.4 0,2.5 1.02,4.77 2.66,6.4 1.64,1.64 3.9,2.66 6.4,2.66 2.5,0 4.76,-1.02 6.4,-2.66zm5.07 -4.66c0.44,0.44 1.05,0.72 1.73,0.72 0.68,0 1.29,-0.28 1.74,-0.72 0.44,-0.45 0.72,-1.06 0.72,-1.74l1.69 0c-0.03,4.65 -1.79,8.97 -5.08,12.27 -3.14,3.14 -7.48,5.08 -12.27,5.08 -4.79,0 -9.13,-1.94 -12.27,-5.08 -3.14,-3.14 -5.08,-7.48 -5.08,-12.27 0,-3.88 1.57,-7.39 4.12,-9.93 2.54,-2.55 6.05,-4.12 9.93,-4.12 3.88,0 7.39,1.57 9.93,4.12 2.52,2.51 4.08,5.97 4.12,9.79l0 0.14c0,0.68 0.27,1.29 0.72,1.74z"/>
  </g>
 </g>
</svg>
